<svg width="16" height="26" viewBox="0 0 16 26" fill="none" xmlns="http://www.w3.org/2000/svg">
<path d="M3.37101 25.6312H12.5798C14.5701 25.6312 15.9002 24.3365 15.9002 22.3987V3.23249C15.9002 1.29258 14.5701 0 12.5798 0H3.37101C1.35117 0 0 1.29258 0 3.23038V22.4008C0 24.3365 1.35117 25.6312 3.37101 25.6312ZM3.76475 23.2699C2.82772 23.2699 2.29592 22.7658 2.29592 21.8726V3.75866C2.29592 2.86545 2.82772 2.36131 3.76475 2.36131H12.1472C13.0725 2.36131 13.6043 2.86967 13.6043 3.76076V21.8705C13.6043 22.7615 13.0725 23.2699 12.1472 23.2699H3.76475ZM6.06678 23.5458H9.84303V22.8609C9.84303 22.3573 9.51186 22.0144 9.01029 22.0144H6.90913C6.39795 22.0144 6.06678 22.3573 6.06678 22.8609V23.5458Z" fill="#2BD2C1" fill-opacity="0.9"/>
</svg>
